<?xml version="1.0" standalone="no"?>
<!DOCTYPE svg PUBLIC "-//W3C//DTD SVG 20010904//EN"
 "http://www.w3.org/TR/2001/REC-SVG-20010904/DTD/svg10.dtd">
<svg version="1.0" xmlns="http://www.w3.org/2000/svg"
 width="256.000000pt" height="256.000000pt" viewBox="0 0 256.000000 256.000000"
 preserveAspectRatio="xMidYMid meet">
<metadata>
Created by potrace 1.11, written by Peter Selinger 2001-2013
</metadata>
<g transform="translate(0.000000,256.000000) scale(0.100000,-0.100000)"
fill="#000000" stroke="none">
<path d="M1110 2175 c-30 -8 -64 -16 -75 -19 -69 -15 -199 -77 -275 -129 -72
-51 -184 -167 -233 -243 -61 -94 -92 -164 -123 -279 -32 -117 -33 -333 -3
-413 5 -13 7 -28 3 -33 -3 -5 0 -9 7 -9 7 0 10 -3 6 -6 -11 -12 77 -208 111
-246 8 -10 12 -18 9 -18 -6 0 11 -21 76 -93 20 -23 37 -45 37 -49 0 -5 7 -8
17 -8 9 0 13 -3 10 -7 -4 -3 3 -11 16 -18 12 -6 21 -17 19 -24 -1 -7 2 -10 7
-7 5 3 14 -1 21 -9 7 -8 19 -15 27 -15 10 0 13 -7 9 -22 -3 -13 -3 -17 0 -10
7 14 34 16 34 2 0 -5 -4 -10 -10 -10 -5 0 -10 -5 -10 -11 0 -8 4 -8 14 0 8 7
22 8 35 3 21 -7 20 -9 -16 -38 -55 -44 -68 -50 -60 -32 7 20 -34 40 -54 27
-12 -8 -12 -10 1 -8 29 3 40 -1 40 -15 0 -27 20 -28 51 -1 18 14 34 23 38 20
3 -4 -3 -14 -14 -22 -18 -14 -18 -15 -1 -9 26 9 50 -12 35 -30 -8 -10 -8 -14
0 -14 6 0 11 5 11 11 0 8 5 8 15 -1 19 -15 47 4 38 26 -4 10 0 12 11 8 30 -12
-20 -68 -51 -57 -7 3 -13 0 -13 -7 0 -6 4 -9 9 -6 5 3 12 -1 15 -10 3 -9 11
-12 18 -8 8 5 9 2 4 -12 -5 -14 -4 -16 5 -7 13 13 3 37 -12 28 -5 -4 -9 -2 -9
3 0 11 30 25 38 17 3 -3 1 -5 -4 -5 -4 0 2 -7 14 -16 22 -15 25 -15 45 4 23
20 57 26 57 9 0 -6 3 -7 6 -4 4 4 2 13 -5 21 -9 11 -7 14 13 14 22 0 23 -3 13
-20 -10 -16 -8 -22 13 -38 14 -11 30 -20 35 -20 6 1 -2 8 -18 18 -27 17 -35
36 -17 47 5 3 7 12 3 20 -3 8 0 15 7 15 6 0 9 -4 6 -9 -3 -5 4 -9 17 -10 12 0
37 -1 55 -1 17 -1 32 -6 32 -11 0 -6 -4 -8 -9 -5 -5 3 -15 -2 -22 -11 -8 -9
-9 -14 -3 -10 7 4 14 0 18 -8 6 -17 26 -20 26 -4 0 5 -4 7 -10 4 -5 -3 -10 -2
-10 4 0 12 19 25 27 17 3 -3 6 -17 6 -31 0 -27 4 -30 25 -16 11 7 11 9 -2 14
-9 4 -16 12 -16 18 0 7 8 6 23 -4 21 -14 24 -13 35 4 16 25 33 20 54 -16 11
-20 17 -24 18 -13 0 9 -4 20 -10 23 -5 3 -10 12 -10 18 1 7 9 2 19 -10 12 -15
22 -18 32 -12 11 7 10 9 -4 9 -10 0 -16 4 -13 8 2 4 1 14 -5 22 -5 8 -9 10 -9
4 0 -6 -7 -11 -15 -11 -21 0 -19 14 3 19 21 6 56 -15 45 -26 -4 -4 0 -4 10 0
12 4 16 2 12 -8 -3 -8 2 -21 12 -28 15 -12 16 -12 6 0 -20 22 -15 35 6 16 11
-10 17 -25 14 -34 -4 -14 -3 -15 5 -2 6 8 8 18 5 23 -3 5 1 14 8 19 10 6 6 7
-11 3 -20 -6 -23 -5 -12 6 19 21 14 28 -18 24 -16 -2 -32 0 -35 5 -3 4 9 7 25
6 17 -1 30 1 30 6 0 4 3 7 8 6 13 -3 77 14 90 24 6 6 12 7 12 3 0 -4 7 -2 15
5 9 7 18 10 21 7 9 -8 -6 -28 -16 -22 -5 3 -11 -4 -15 -15 -4 -11 -11 -18 -16
-14 -5 3 -6 10 -3 16 4 6 -2 6 -15 -1 -11 -7 -21 -9 -21 -5 0 3 -6 1 -13 -5
-8 -6 -16 -9 -19 -6 -2 3 -5 -2 -5 -10 0 -8 7 -17 15 -20 11 -4 12 -8 2 -20
-9 -10 -9 -15 -1 -15 6 0 11 5 11 11 0 5 4 8 9 5 4 -3 8 6 7 21 0 14 4 28 11
30 8 3 10 -6 8 -26 -2 -17 0 -33 5 -36 6 -3 7 0 5 7 -8 19 74 16 86 -3 5 -8 9
-9 9 -3 0 5 -5 15 -10 20 -8 8 -6 15 5 24 12 10 18 10 31 0 12 -11 18 -10 31
3 15 15 15 18 -2 36 -9 11 -22 18 -26 15 -5 -3 -9 0 -9 5 0 6 7 11 15 11 8 0
15 5 15 10 0 17 -10 11 -42 -23 -18 -19 -28 -25 -24 -14 3 11 2 16 -4 12 -6
-3 -10 1 -10 9 0 10 6 13 17 9 12 -5 14 -3 8 7 -5 8 -4 11 2 7 6 -4 22 2 36
13 18 15 28 17 33 9 4 -8 3 -9 -4 -5 -8 5 -10 2 -6 -9 7 -18 14 -14 18 8 2 19
27 43 53 51 12 4 24 13 27 21 3 8 10 15 16 15 7 0 25 12 40 27 16 16 35 33 42
39 26 21 81 91 128 159 65 97 107 196 136 330 14 60 15 227 3 295 -7 41 -13
77 -14 80 -11 69 -96 253 -146 320 -123 161 -292 277 -489 337 -105 31 -319
41 -410 18z m-220 -1701 c0 5 7 3 15 -4 8 -7 15 -9 15 -4 0 4 7 -1 15 -12 8
-10 15 -15 15 -10 0 5 7 3 15 -4 8 -7 15 -10 15 -6 0 3 12 1 28 -5 15 -6 35
-12 46 -15 25 -5 30 -10 17 -19 -6 -3 -11 -1 -11 6 0 8 -4 8 -15 -1 -8 -7 -12
-16 -9 -21 3 -5 -2 -6 -10 -3 -8 3 -23 -4 -33 -15 -22 -26 -29 -26 -43 -2 -11
21 -4 51 12 51 7 0 7 -4 0 -13 -8 -9 -4 -12 18 -12 16 -1 26 3 23 9 -4 5 1 7
10 3 9 -3 19 -3 21 2 3 4 0 8 -7 9 -57 5 -97 20 -97 36 0 6 -5 3 -11 -7 -5 -9
-8 -21 -4 -26 3 -5 0 -13 -6 -17 -12 -7 -51 29 -62 58 -8 21 24 43 35 25 4 -7
8 -8 8 -3z m761 -63 c21 20 43 23 36 5 -4 -10 -1 -13 9 -9 7 3 14 1 14 -5 0
-17 -30 -23 -37 -6 -5 13 -10 11 -32 -10 -18 -17 -37 -25 -54 -24 -31 3 -44
23 -16 25 11 1 17 -1 15 -5 -3 -4 4 -8 14 -8 22 0 34 22 18 32 -7 4 -8 3 -4
-4 4 -7 1 -12 -7 -12 -23 0 -28 12 -10 25 14 11 19 10 28 -2 10 -13 14 -13 26
-2z m-134 -32 c2 -16 -1 -19 -9 -11 -5 5 -7 15 -4 21 10 15 12 14 13 -10z
m-247 2 c0 -18 -17 -20 -36 -6 -18 14 -18 14 9 15 15 0 27 -4 27 -9z m60 -2
c0 -5 -4 -8 -9 -4 -5 3 -17 -2 -26 -11 -9 -9 -19 -13 -23 -9 -4 4 -1 10 6 12
6 3 10 8 8 12 -3 4 6 8 20 9 13 1 24 -3 24 -9z m120 -9 c0 -5 -2 -10 -4 -10
-3 0 -8 5 -11 10 -3 6 -1 10 4 10 6 0 11 -4 11 -10z"/>
<path d="M860 459 c0 -5 5 -7 10 -4 6 3 10 8 10 11 0 2 -4 4 -10 4 -5 0 -10
-5 -10 -11z"/>
<path d="M883 451 c-8 -12 -8 -22 -1 -32 8 -11 9 -11 4 3 -3 10 -1 20 4 23 6
4 10 1 10 -6 0 -7 3 -10 6 -6 3 3 2 12 -3 21 -7 14 -10 13 -20 -3z"/>
<path d="M965 360 c3 -5 8 -10 11 -10 2 0 4 5 4 10 0 6 -5 10 -11 10 -5 0 -7
-4 -4 -10z"/>
<path d="M660 540 c-8 -5 -10 -10 -5 -10 6 0 17 5 25 10 8 5 11 10 5 10 -5 0
-17 -5 -25 -10z"/>
<path d="M716 522 c-3 -5 1 -9 9 -9 8 0 12 4 9 9 -3 4 -7 8 -9 8 -2 0 -6 -4
-9 -8z"/>
<path d="M1793 516 c-3 -6 -3 -8 2 -4 4 4 13 3 20 -2 8 -7 12 -5 12 3 0 16
-25 18 -34 3z"/>
<path d="M1906 522 c-3 -5 1 -9 9 -9 8 0 12 4 9 9 -3 4 -7 8 -9 8 -2 0 -6 -4
-9 -8z"/>
<path d="M1869 503 c-13 -16 -12 -17 4 -4 16 13 21 21 13 21 -2 0 -10 -8 -17
-17z"/>
<path d="M693 485 c0 -8 4 -15 9 -15 4 0 8 4 8 9 0 6 -4 12 -8 15 -5 3 -9 -1
-9 -9z"/>
<path d="M771 483 c-1 -31 10 -34 38 -12 13 10 19 19 13 19 -5 0 -16 -7 -23
-16 -12 -15 -14 -14 -20 7 -7 23 -7 23 -8 2z"/>
<path d="M1757 486 c-4 -9 -3 -15 2 -11 5 3 12 -1 14 -7 4 -10 6 -10 6 0 1 7
6 10 13 6 7 -4 8 -3 4 5 -4 6 -11 9 -16 6 -4 -3 -10 0 -12 7 -3 7 -7 5 -11 -6z"/>
<path d="M1955 489 c-4 -6 -5 -12 -2 -15 2 -3 7 2 10 11 7 17 1 20 -8 4z"/>
<path d="M550 481 c0 -6 4 -13 10 -16 6 -3 7 1 4 9 -7 18 -14 21 -14 7z"/>
<path d="M630 476 c7 -7 13 -7 20 0 6 6 3 10 -10 10 -13 0 -16 -4 -10 -10z"/>
<path d="M1816 475 c-5 -14 30 -42 41 -32 2 3 -5 8 -16 12 -12 4 -18 12 -14
21 3 7 3 14 0 14 -3 0 -7 -7 -11 -15z"/>
<path d="M1875 450 c0 -17 5 -32 12 -34 9 -4 10 1 4 17 -5 12 -9 26 -9 30 -1
24 -8 12 -7 -13z"/>
<path d="M475 460 c-3 -5 -1 -10 4 -10 6 0 11 5 11 10 0 6 -2 10 -4 10 -3 0
-8 -4 -11 -10z"/>
<path d="M585 460 c-3 -6 1 -7 9 -4 18 7 21 14 7 14 -6 0 -13 -4 -16 -10z"/>
<path d="M1734 456 c5 -13 2 -17 -9 -12 -8 3 -15 1 -15 -4 0 -5 14 -8 30 -8
17 1 30 6 30 11 0 6 -3 7 -7 4 -3 -4 -12 1 -20 11 -14 16 -14 16 -9 -2z"/>
<path d="M611 447 c-8 -10 -7 -14 2 -14 8 0 14 6 14 14 0 7 -1 13 -2 13 -2 0
-8 -6 -14 -13z"/>
<path d="M656 435 c-3 -8 0 -17 6 -21 7 -5 8 -2 3 6 -6 10 -4 12 9 7 10 -4 20
-7 22 -7 3 0 2 -5 -2 -12 -4 -7 -3 -8 4 -4 16 10 15 11 -12 29 -21 14 -25 14
-30 2z"/>
<path d="M1795 440 c27 -12 43 -12 25 0 -8 5 -22 9 -30 9 -10 0 -8 -3 5 -9z"/>
<path d="M715 430 c3 -5 8 -10 11 -10 2 0 4 5 4 10 0 6 -5 10 -11 10 -5 0 -7
-4 -4 -10z"/>
<path d="M559 413 c-13 -16 -12 -17 4 -4 16 13 21 21 13 21 -2 0 -10 -8 -17
-17z"/>
<path d="M1767 413 c-11 -11 -17 -13 -17 -5 0 7 -5 12 -11 12 -8 0 -8 -5 1
-15 9 -10 9 -15 1 -15 -6 0 -11 -5 -11 -11 0 -8 5 -8 15 1 12 10 18 10 30 0 9
-8 15 -8 15 -2 0 6 -6 13 -12 15 -10 4 -9 8 2 16 8 5 12 12 9 15 -3 3 -13 -2
-22 -11z"/>
<path d="M1835 419 c-4 -6 -5 -12 -2 -15 2 -3 7 2 10 11 7 17 1 20 -8 4z"/>
<path d="M2015 420 c-3 -5 -1 -10 4 -10 6 0 11 5 11 10 0 6 -2 10 -4 10 -3 0
-8 -4 -11 -10z"/>
<path d="M1801 403 c-1 -25 14 -39 25 -22 4 7 3 9 -4 5 -6 -3 -12 3 -15 16 -4
23 -4 23 -6 1z"/>
<path d="M1915 411 c-3 -5 -2 -12 3 -15 5 -3 9 1 9 9 0 17 -3 19 -12 6z"/>
<path d="M646 397 c3 -10 9 -15 12 -12 3 3 0 11 -7 18 -10 9 -11 8 -5 -6z"/>
<path d="M730 400 c0 -5 5 -10 10 -10 6 0 10 5 10 10 0 6 -4 10 -10 10 -5 0
-10 -4 -10 -10z"/>
<path d="M798 403 c7 -3 16 -2 19 1 4 3 -2 6 -13 5 -11 0 -14 -3 -6 -6z"/>
<path d="M822 395 c-6 -8 -18 -12 -26 -9 -8 3 -17 1 -20 -4 -11 -18 43 -9 60
9 9 11 13 19 8 19 -5 -1 -15 -7 -22 -15z"/>
<path d="M1860 400 c8 -5 20 -10 25 -10 6 0 3 5 -5 10 -8 5 -19 10 -25 10 -5
0 -3 -5 5 -10z"/>
<path d="M715 381 c6 -18 4 -22 -6 -16 -8 5 -10 4 -6 0 4 -5 14 -10 22 -11 12
-2 13 2 4 19 -17 32 -22 35 -14 8z"/>
<path d="M600 375 c-7 -9 -11 -17 -9 -20 3 -2 10 5 17 15 14 24 10 26 -8 5z"/>
<path d="M1104 368 c-11 -12 -14 -18 -8 -15 7 4 14 0 18 -8 3 -8 11 -15 18
-14 10 0 10 2 1 6 -7 2 -13 9 -13 14 0 6 5 7 12 3 7 -4 8 -3 4 4 -4 7 -2 12 3
12 10 0 16 -21 12 -42 0 -4 7 -4 16 -1 11 4 14 3 9 -5 -4 -7 -2 -12 3 -12 17
0 13 20 -5 27 -10 3 -14 13 -10 25 2 11 2 17 -1 14 -3 -3 -13 -1 -23 4 -13 7
-22 4 -36 -12z"/>
<path d="M1834 368 c-10 -12 -13 -18 -6 -14 7 4 21 2 30 -5 14 -11 15 -11 5 1
-16 18 -17 34 -1 24 7 -4 8 -3 4 4 -9 16 -10 16 -32 -10z"/>
<path d="M830 360 c0 -5 7 -7 15 -4 8 4 15 8 15 10 0 2 -7 4 -15 4 -8 0 -15
-4 -15 -10z"/>
<path d="M1655 360 c3 -5 11 -10 16 -10 6 0 7 5 4 10 -3 6 -11 10 -16 10 -6 0
-7 -4 -4 -10z"/>
<path d="M1716 358 c5 -8 1 -9 -12 -4 -14 5 -16 4 -7 -4 7 -8 17 -9 28 -3 16
9 16 10 1 16 -12 5 -15 3 -10 -5z"/>
<path d="M1762 356 c7 -8 15 -12 17 -11 5 6 -10 25 -20 25 -5 0 -4 -6 3 -14z"/>
<path d="M775 351 c-3 -5 0 -13 6 -17 8 -5 9 -3 4 6 -6 10 -4 12 9 7 10 -4 20
-7 22 -7 3 0 2 -5 -2 -12 -5 -7 -3 -8 6 -3 10 6 9 11 -5 22 -22 15 -32 16 -40
4z"/>
<path d="M681 336 c-9 -11 -9 -16 1 -22 7 -4 10 -4 6 1 -4 4 -3 14 3 22 6 7 9
13 6 13 -2 0 -10 -6 -16 -14z"/>
<path d="M750 343 c0 -6 8 -17 18 -24 16 -13 16 -13 2 6 -8 11 -16 22 -17 24
-2 2 -3 0 -3 -6z"/>
<path d="M845 339 c-6 -8 -4 -10 5 -4 10 6 12 4 6 -11 -6 -15 -5 -17 5 -6 9 9
10 15 2 23 -8 8 -13 7 -18 -2z"/>
<path d="M1015 340 c3 -5 15 -10 26 -10 11 0 17 -4 14 -10 -3 -5 -1 -10 4 -10
21 0 11 21 -15 30 -32 13 -37 12 -29 0z"/>
<path d="M1300 330 c-7 -14 -7 -20 0 -20 5 0 10 7 10 15 0 20 10 19 27 -2 13
-16 13 -16 3 5 -13 27 -26 28 -40 2z"/>
<path d="M1567 326 c-4 -10 -3 -15 3 -11 6 3 10 1 10 -6 0 -7 3 -10 6 -6 3 3
2 13 -4 22 -8 16 -9 16 -15 1z"/>
<path d="M1665 327 c-15 -12 -16 -15 -4 -22 8 -5 11 -5 7 0 -4 4 0 14 10 21
23 18 11 18 -13 1z"/>
<path d="M624 322 c4 -3 14 -7 22 -8 9 -1 13 0 10 4 -4 3 -14 7 -22 8 -9 1
-13 0 -10 -4z"/>
<path d="M886 317 c3 -10 9 -15 12 -12 3 3 0 11 -7 18 -10 9 -11 8 -5 -6z"/>
<path d="M936 313 c-6 -14 -5 -15 5 -6 7 7 10 15 7 18 -3 3 -9 -2 -12 -12z"/>
<path d="M1000 320 c8 -5 20 -10 25 -10 6 0 3 5 -5 10 -8 5 -19 10 -25 10 -5
0 -3 -5 5 -10z"/>
<path d="M1400 316 c0 -8 4 -18 10 -21 6 -4 7 1 3 11 -5 13 -3 15 7 9 9 -5 11
-4 6 3 -10 17 -26 15 -26 -2z"/>
<path d="M1515 320 c-3 -6 1 -7 9 -4 18 7 21 14 7 14 -6 0 -13 -4 -16 -10z"/>
<path d="M1746 322 c-3 -5 1 -9 9 -9 8 0 15 4 15 9 0 4 -4 8 -9 8 -6 0 -12 -4
-15 -8z"/>
<path d="M733 305 c0 -8 4 -12 9 -9 5 3 6 10 3 15 -9 13 -12 11 -12 -6z"/>
<path d="M790 316 c0 -2 8 -10 18 -17 15 -13 16 -12 3 4 -13 16 -21 21 -21 13z"/>
<path d="M1895 311 c-3 -5 -2 -12 3 -15 5 -3 9 1 9 9 0 17 -3 19 -12 6z"/>
<path d="M1079 308 c-6 -22 -5 -38 3 -38 6 0 7 7 4 16 -5 12 -2 15 9 10 9 -3
13 -2 10 4 -5 9 -24 14 -26 8z"/>
<path d="M1190 288 c-10 -21 -10 -21 3 -5 19 23 25 21 22 -8 -2 -14 0 -23 4
-20 11 6 6 48 -7 53 -6 2 -16 -7 -22 -20z"/>
<path d="M1260 306 c0 -2 7 -7 16 -10 8 -3 12 -2 9 4 -6 10 -25 14 -25 6z"/>
<path d="M1313 302 c-9 -6 -7 -11 7 -20 19 -11 40 1 26 15 -3 4 -6 1 -6 -6 0
-7 -5 -9 -10 -6 -6 4 -8 11 -5 16 7 11 4 11 -12 1z"/>
<path d="M1379 308 c-8 -27 -5 -36 9 -30 10 4 12 7 4 10 -7 2 -10 8 -6 13 3 5
3 9 0 9 -3 0 -6 -1 -7 -2z"/>
<path d="M1435 301 c-3 -5 -2 -12 3 -15 5 -3 9 1 9 9 0 17 -3 19 -12 6z"/>
<path d="M1687 299 c7 -7 15 -10 18 -7 3 3 -2 9 -12 12 -14 6 -15 5 -6 -5z"/>
<path d="M1618 288 c12 -16 35 -18 48 -6 3 4 -2 5 -13 4 -10 -2 -25 2 -33 8
-13 9 -13 9 -2 -6z"/>
<path d="M670 286 c0 -2 7 -7 16 -10 8 -3 12 -2 9 4 -6 10 -25 14 -25 6z"/>
<path d="M916 278 c3 -5 10 -6 15 -3 13 9 11 12 -6 12 -8 0 -12 -4 -9 -9z"/>
<path d="M950 279 c0 -5 5 -7 10 -4 6 3 10 8 10 11 0 2 -4 4 -10 4 -5 0 -10
-5 -10 -11z"/>
<path d="M1495 260 c3 -5 8 -10 11 -10 2 0 4 5 4 10 0 6 -5 10 -11 10 -5 0 -7
-4 -4 -10z"/>
<path d="M1590 256 c0 -2 8 -10 18 -17 15 -13 16 -12 3 4 -13 16 -21 21 -21
13z"/>
<path d="M1066 238 c3 -5 10 -6 15 -3 13 9 11 12 -6 12 -8 0 -12 -4 -9 -9z"/>
</g>
</svg>
